<svg xmlns="http://www.w3.org/2000/svg" viewBox="0 0 100 100">
  <!-- Lines -->
  <g stroke="black" stroke-width="2" stroke-linecap="round">
    <!-- Top to Row 1 -->
    <line x1="50" y1="10" x2="30" y2="25" />
    <line x1="50" y1="10" x2="50" y2="25" />
    <line x1="50" y1="10" x2="70" y2="25" />
    
    <!-- Row 1 Horizontal -->
    <line x1="30" y1="25" x2="50" y2="25" />
    <line x1="50" y1="25" x2="70" y2="25" />
    
    <!-- Row 1 to Row 2 -->
    <line x1="30" y1="25" x2="15" y2="45" />
    <line x1="30" y1="25" x2="35" y2="45" />
    <line x1="50" y1="25" x2="35" y2="45" />
    <line x1="50" y1="25" x2="65" y2="45" />
    <line x1="70" y1="25" x2="65" y2="45" />
    <line x1="70" y1="25" x2="85" y2="45" />
    
    <!-- Row 2 Horizontal -->
    <line x1="15" y1="45" x2="35" y2="45" />
    <line x1="35" y1="45" x2="65" y2="45" />
    <line x1="65" y1="45" x2="85" y2="45" />
    
    <!-- Row 2 to Row 3 -->
    <line x1="15" y1="45" x2="30" y2="65" />
    <line x1="35" y1="45" x2="30" y2="65" />
    <line x1="35" y1="45" x2="50" y2="65" />
    <line x1="65" y1="45" x2="50" y2="65" />
    <line x1="65" y1="45" x2="70" y2="65" />
    <line x1="85" y1="45" x2="70" y2="65" />
    
    <!-- Row 3 Horizontal -->
    <line x1="30" y1="65" x2="50" y2="65" />
    <line x1="50" y1="65" x2="70" y2="65" />
    
    <!-- Row 3 to Bottom -->
    <line x1="30" y1="65" x2="50" y2="95" />
    <line x1="50" y1="65" x2="50" y2="95" />
    <line x1="70" y1="65" x2="50" y2="95" />
  </g>
  
  <!-- Nodes -->
  <g fill="white" stroke="black" stroke-width="2">
    <circle cx="50" cy="10" r="3" />
    
    <circle cx="30" cy="25" r="3" />
    <circle cx="50" cy="25" r="3" />
    <circle cx="70" cy="25" r="3" />
    
    <circle cx="15" cy="45" r="3" />
    <circle cx="35" cy="45" r="3" />
    <circle cx="65" cy="45" r="3" />
    <circle cx="85" cy="45" r="3" />
    
    <circle cx="30" cy="65" r="3" />
    <circle cx="50" cy="65" r="3" />
    <circle cx="70" cy="65" r="3" />
    
    <circle cx="50" cy="95" r="3" />
  </g>
</svg>
